#!OML:ASF E:\motion texture\Top Level 1\Subject 1\Session 1\male.ASF
:FULLY-SPECIFIED
:DEGREES
404
root 2.09044 17.7309 4.82914 404.334 -84.0274 -397.097
lowerback -3.31247 -0.221912 2.41536
upperback -1.42992 -0.442491 2.90882
thorax 0.395501 -0.245285 1.61345
lowerneck -15.2376 5.88505 1.21126
upperneck 33.1625 6.93358 1.57307
head 13.7661 3.08312 1.45654
rclavicle -4.29872e-015 1.19271e-015
rhumerus -36.0562 -18.4121 -68.196
rradius 29.212
rwrist 6.0105
rhand -11.4971 -28.3412
rfingers 7.12502
rthumb 14.5416 -57.8115
lclavicle -4.29872e-015 1.19271e-015
lhumerus -69.9515 47.5619 25.161
lradius 15.4013
lwrist -28.3496
lhand -13.8788 41.992
lfingers 7.12502
lthumb 12.246 71.6134
rfemur -29.6272 3.80559 22.8358
rtibia 21.9271
rfoot -0.501442 -10.53
rtoes 15.0642
lfemur -2.40051 -4.58644 -14.5843
ltibia 36.3065
lfoot -3.46031 -4.77345
ltoes -20.9365
405
root 1.94028 17.7413 4.80649 404.549 -83.6598 -397.435
lowerback -3.27924 -0.182701 2.68903
upperback -1.44216 -0.400183 2.99274
thorax 0.362568 -0.226449 1.54824
lowerneck -15.2463 5.88084 1.24035
upperneck 33.2202 6.91334 1.59247
head 13.794 3.07992 1.45825
rclavicle -7.47927e-015 1.59028e-015
rhumerus -35.8955 -18.6661 -67.9062
rradius 28.8303
rwrist 6.16284
rhand -11.561 -28.427
rfingers 7.12502
rthumb 14.48 -57.9017
lclavicle -7.47927e-015 1.59028e-015
lhumerus -66.0035 46.8515 29.6465
lradius 16.0112
lwrist -25.2436
lhand -13.8849 42.0962
lfingers 7.12502
lthumb 12.2401 71.7181
rfemur -29.0929 3.81209 23.3105
rtibia 22.1613
rfoot -0.625953 -10.4215
rtoes 15.6412
lfemur -3.05616 -4.61047 -14.0741
ltibia 37.6809
lfoot -2.6311 -5.02602
ltoes -20.7376
406
root 1.79115 17.752 4.78395 404.695 -83.2875 -397.71
lowerback -3.24631 -0.144528 2.96078
upperback -1.4543 -0.358999 3.07571
thorax 0.330168 -0.208294 1.48313
lowerneck -15.256 5.8759 1.26917
upperneck 33.2715 6.89128 1.61532
head 13.8192 3.07669 1.46097
rclavicle 5.93869e-015 1.74931e-014
rhumerus -35.7185 -18.9123 -67.622
rradius 28.4555
rwrist 6.31151
rhand -11.6308 -28.5291
rfingers 7.12502
rthumb 14.4128 -58.0086
lclavicle 5.93869e-015 1.74931e-014
lhumerus -62.0938 45.9009 34.065
lradius 16.7005
lwrist -22.0722
lhand -13.8866 42.2229
lfingers 7.12502
lthumb 12.2384 71.8448
rfemur -28.5347 3.80624 23.7868
rtibia 22.3638
rfoot -0.779472 -10.3284
rtoes 16.18
lfemur -3.74605 -4.6323 -13.5674
ltibia 39.0488
lfoot -1.84493 -5.25427
ltoes -20.5112
407
root 1.64315 17.763 4.76155 404.793 -82.9122 -397.942
lowerback -3.21278 -0.106905 3.22978
upperback -1.46718 -0.318178 3.15761
thorax 0.296908 -0.190451 1.41852
lowerneck -15.2658 5.86986 1.29846
upperneck 33.3152 6.86692 1.64076
head 13.8411 3.07324 1.4641
rclavicle -9.16894e-015 1.86858e-014
rhumerus -35.5257 -19.1467 -67.3459
rradius 28.0921
rwrist 6.45342
rhand -11.7047 -28.6491
rfingers 7.12502
rthumb 14.3415 -58.1337
lclavicle -9.16894e-015 1.86858e-014
lhumerus -58.2922 44.7204 38.3323
lradius 17.4743
lwrist -18.8556
lhand -13.8826 42.3786
lfingers 7.12502
lthumb 12.2423 72.0002
rfemur -27.9545 3.78934 24.2646
rtibia 22.5333
rfoot -0.95765 -10.2513
rtoes 16.6859
lfemur -4.4679 -4.65075 -13.0654
ltibia 40.4032
lfoot -1.11161 -5.45808
ltoes -20.2482
408
root 1.49635 17.7742 4.73935 404.846 -82.537 -398.132
lowerback -3.18093 -0.0693136 3.49308
upperback -1.47953 -0.277081 3.23776
thorax 0.265386 -0.172539 1.35536
lowerneck -15.2762 5.86217 1.32699
upperneck 33.3489 6.83959 1.66986
head 13.8585 3.06935 1.46811
rclavicle 1.9133e-015 1.98785e-014
rhumerus -35.3145 -19.3663 -67.0809
rradius 27.7436
rwrist 6.58664
rhand -11.7819 -28.7897
rfingers 7.12502
rthumb 14.2671 -58.2796
lclavicle 1.9133e-015 1.98785e-014
lhumerus -54.6519 43.3336 42.3811
lradius 18.3369
lwrist -15.6154
lhand -13.8469 42.5393
lfingers 7.12502
lthumb 12.2768 72.1589
rfemur -27.3536 3.76016 24.741
rtibia 22.6698
rfoot -1.15796 -10.1895
rtoes 17.1529
lfemur -5.21841 -4.66531 -12.5726
ltibia 41.7364
lfoot -0.440278 -5.6373
ltoes -19.9597
409
root 1.35081 17.7856 4.71749 404.857 -82.163 -398.284
lowerback -3.14823 -0.0313736 3.75186
upperback -1.49391 -0.234941 3.31405
thorax 0.231539 -0.154222 1.29085
lowerneck -15.2865 5.85181 1.3538
upperneck 33.373 6.80698 1.70562
head 13.8712 3.06429 1.47395
rclavicle -4.79568e-015 1.90833e-014
rhumerus -35.0889 -19.5691 -66.8289
rradius 27.4127
rwrist 6.7082
rhand -11.8576 -28.9519
rfingers 7.12502
rthumb 14.1942 -58.447
lclavicle -4.79568e-015 1.90833e-014
lhumerus -51.2029 41.7536 46.1721
lradius 19.293
lwrist -12.3589
lhand -13.7967 42.7286
lfingers 7.12502
lthumb 12.3252 72.3453
rfemur -26.7327 3.71735 25.2146
rtibia 22.7717
rfoot -1.37619 -10.1429
rtoes 17.5858
lfemur -5.99444 -4.67651 -12.0921
ltibia 43.0408
lfoot 0.164744 -5.79244
ltoes -19.6536
410
root 1.20657 17.7973 4.69581 404.846 -81.7931 -398.418
lowerback -3.11658 0.00770479 4.00309
upperback -1.50888 -0.190784 3.38707
thorax 0.197927 -0.13496 1.22732
lowerneck -15.2945 5.83907 1.38195
upperneck 33.3836 6.76975 1.74492
head 13.8775 3.05843 1.4798
rclavicle -6.83322e-015 -2.3059e-014
rhumerus -34.8465 -19.7516 -66.5932
rradius 27.1035
rwrist 6.81345
rhand -11.939 -29.1295
rfingers 7.12502
rthumb 14.1158 -58.63
lclavicle -6.83322e-015 -2.3059e-014
lhumerus -47.9702 40.0244 49.6628
lradius 20.3414
lwrist -9.12224
lhand -13.7202 42.9323
lfingers 7.12502
lthumb 12.3989 72.5446
rfemur -26.0954 3.66553 25.6846
rtibia 22.8417
rfoot -1.61168 -10.1149
rtoes 17.9823
lfemur -6.79346 -4.68187 -11.6234
ltibia 44.3091
lfoot 0.691944 -5.92474
ltoes -19.353
411
root 1.06372 17.809 4.67445 404.811 -81.4288 -398.529
lowerback -3.08399 0.0475981 4.24678
upperback -1.52517 -0.144846 3.45577
thorax 0.1627 -0.114882 1.16366
lowerneck -15.3026 5.82369 1.40789
upperneck 33.3811 6.72745 1.79125
head 13.8775 3.05159 1.48765
rclavicle 9.81499e-015 3.29983e-014
rhumerus -34.5861 -19.9099 -66.3767
rradius 26.8173
rwrist 6.8997
rhand -12.0236 -29.323
rfingers 7.12502
rthumb 14.0343 -58.8291
lclavicle 9.81499e-015 3.29983e-014
lhumerus -44.9539 38.1713 52.8459
lradius 21.4836
lwrist -5.91631
lhand -13.6497 43.1917
lfingers 7.12502
lthumb 12.4669 72.7998
rfemur -25.4424 3.60158 26.1492
rtibia 22.8798
rfoot -1.8614 -10.1039
rtoes 18.3353
lfemur -7.61186 -4.68151 -11.1703
ltibia 45.535
lfoot 1.1384 -6.0338
ltoes -19.0593
412
root 0.922264 17.8208 4.65343 404.755 -81.0715 -398.623
lowerback -3.05234 0.0888024 4.48019
upperback -1.54235 -0.0965398 3.52072
thorax 0.127373 -0.0936559 1.102
lowerneck -15.3096 5.80485 1.43118
upperneck 33.3632 6.67951 1.84342
head 13.8702 3.04335 1.4969
rclavicle -1.60519e-014 2.42517e-014
rhumerus -34.3073 -20.0404 -66.1805
rradius 26.5567
rwrist 6.96424
rhand -12.1152 -29.5279
rfingers 7.12502
rthumb 13.946 -59.0402
lclavicle -1.60519e-014 2.42517e-014
lhumerus -42.1502 36.2339 55.7128
lradius 22.7157
lwrist -2.7795
lhand -13.5549 43.4678
lfingers 7.12502
lthumb 12.5582 73.0703
rfemur -24.7753 3.52429 26.6082
rtibia 22.8881
rfoot -2.12788 -10.1099
rtoes 18.6484
lfemur -8.44609 -4.67499 -10.7344
ltibia 46.7109
lfoot 1.50171 -6.11965
ltoes -18.7798
413
root 0.782185 17.8327 4.63278 404.676 -80.7231 -398.694
lowerback -3.02148 0.131326 4.70218
upperback -1.5611 -0.0457327 3.58035
thorax 0.09116 -0.0712036 1.04135
lowerneck -15.3154 5.78257 1.45228
upperneck 33.3297 6.62548 1.90245
head 13.8553 3.0337 1.50779
rclavicle -9.39258e-015 3.18055e-014
rhumerus -34.011 -20.1406 -66.0072
rradius 26.3235
rwrist 7.00542
rhand -12.2115 -29.7443
rfingers 7.12502
rthumb 13.8532 -59.263
lclavicle -9.39258e-015 3.18055e-014
lhumerus -39.5402 34.2317 58.2767
lradius 24.0368
lwrist 0.280066
lhand -13.4451 43.7661
lfingers 7.12502
lthumb 12.6641 73.3621
rfemur -24.0949 3.4314 27.0595
rtibia 22.869
rfoot -2.4173 -10.1297
rtoes 18.9119
lfemur -9.29203 -4.66218 -10.3192
ltibia 47.8289
lfoot 1.78371 -6.1826
ltoes -18.5089
414
root 0.643481 17.8446 4.61251 404.573 -80.3844 -398.743
lowerback -2.99153 0.174585 4.91005
upperback -1.58101 0.00681301 3.6358
thorax 0.0545596 -0.0478733 0.98434
lowerneck -15.3203 5.75669 1.46807
upperneck 33.2788 6.5658 1.96947
head 13.832 3.02263 1.5213
rclavicle -3.26752e-015 -1.86858e-014
rhumerus -33.6946 -20.2049 -65.8582
rradius 26.1188
rwrist 7.02094
rhand -12.3111 -29.9752
rfingers 7.12502
rthumb 13.7572 -59.5004
lclavicle -3.26752e-015 -1.86858e-014
lhumerus -37.1069 32.2005 60.5458
lradius 25.4406
lwrist 3.23707
lhand -13.3194 44.0779
lfingers 7.12502
lthumb 12.7853 73.6664
rfemur -23.4007 3.32567 27.5013
rtibia 22.8223
rfoot -2.72961 -10.1592
rtoes 19.1469
lfemur -10.1455 -4.64291 -9.92577
ltibia 48.8824
lfoot 1.98355 -6.22218
ltoes -18.2498
415
root 0.506141 17.8564 4.59262 404.441 -80.0568 -398.764
lowerback -2.96245 0.218474 5.10287
upperback -1.60291 0.0610805 3.68512
thorax 0.0166714 -0.0236644 0.92947
lowerneck -15.3241 5.72703 1.47937
upperneck 33.21 6.49966 2.04543
head 13.8001 3.01001 1.53752
rclavicle 2.48481e-017 -3.69739e-014
rhumerus -33.3601 -20.2314 -65.7365
rradius 25.9447
rwrist 7.00991
rhand -12.4133 -30.2202
rfingers 7.12502
rthumb 13.6587 -59.752
lclavicle 2.48481e-017 -3.69739e-014
lhumerus -34.8255 30.1581 62.5379
lradius 26.9232
lwrist 6.08603
lhand -13.1783 44.3982
lfingers 7.12502
lthumb 12.9213 73.9782
rfemur -22.695 3.20807 27.9305
rtibia 22.7491
rfoot -3.05882 -10.1964
rtoes 19.3517
lfemur -11.004 -4.61741 -9.55691
ltibia 49.8657
lfoot 2.10171 -6.23749
ltoes -18.0099
416
root 0.370175 17.8681 4.57309 404.285 -79.7408 -398.759
lowerback -2.93517 0.262965 5.27868
upperback -1.62762 0.117026 3.72888
thorax -0.022843 0.00140182 0.878402
lowerneck -15.3251 5.69402 1.4866
upperneck 33.1218 6.42797 2.12946
head 13.7587 2.99616 1.55604
rclavicle -1.2921e-014 -2.78299e-014
rhumerus -33.0073 -20.2172 -65.642
rradius 25.8017
rwrist 6.9715
rhand -12.5184 -30.4768
rfingers 7.12502
rthumb 13.5574 -60.0154
lclavicle -1.2921e-014 -2.78299e-014
lhumerus -32.6736 28.1237 64.272
lradius 28.4792
lwrist 8.81698
lhand -13.0197 44.7191
lfingers 7.12502
lthumb 13.0742 74.2893
rfemur -21.9804 3.07961 28.3458
rtibia 22.6504
rfoot -3.3977 -10.2415
rtoes 19.5227
lfemur -11.8655 -4.58593 -9.21317
ltibia 50.7723
lfoot 2.14098 -6.22938
ltoes -17.7873
